<svg width="16" height="16" viewBox="0 0 16 16" fill="none" xmlns="http://www.w3.org/2000/svg">
<circle cx="8" cy="8" r="8" fill="#CBCFD7"/>
<path fill-rule="evenodd" clip-rule="evenodd" d="M5.79109 4.37624C5.40057 3.98571 4.7674 3.98571 4.37688 4.37624C3.98635 4.76676 3.98635 5.39993 4.37688 5.79045L6.58644 8.00001L4.37688 10.2096C3.98635 10.6001 3.98635 11.2333 4.37688 11.6238C4.7674 12.0143 5.40057 12.0143 5.79109 11.6238L8.00065 9.41422L10.2102 11.6238C10.6007 12.0143 11.2339 12.0143 11.6244 11.6238C12.0149 11.2333 12.0149 10.6001 11.6244 10.2096L9.41486 8.00001L11.6244 5.79045C12.0149 5.39993 12.0149 4.76676 11.6244 4.37624C11.2339 3.98571 10.6007 3.98571 10.2102 4.37624L8.00065 6.5858L5.79109 4.37624Z" fill="white"/>
</svg>
