<svg width="8" height="8" viewBox="0 0 8 8" fill="none" xmlns="http://www.w3.org/2000/svg">
  <path fill-rule="evenodd" clip-rule="evenodd" d="M1.79109 0.376237C1.40057 -0.0142876 0.767402 -0.0142876 0.376878 0.376237C-0.0136467 0.766761 -0.0136467 1.39993 0.376878 1.79045L2.58644 4.00001L0.376878 6.20957C-0.0136467 6.60009 -0.0136467 7.23326 0.376878 7.62378C0.767402 8.01431 1.40057 8.01431 1.79109 7.62378L4.00065 5.41422L6.21021 7.62378C6.60074 8.01431 7.2339 8.01431 7.62442 7.62378C8.01495 7.23326 8.01495 6.60009 7.62442 6.20957L5.41486 4.00001L7.62442 1.79045C8.01495 1.39993 8.01495 0.766761 7.62442 0.376237C7.2339 -0.0142876 6.60074 -0.0142876 6.21021 0.376237L4.00065 2.5858L1.79109 0.376237Z" fill="white"/>
</svg>
