<svg width="24" height="24" viewBox="0 0 24 24" fill="none" xmlns="http://www.w3.org/2000/svg">
<path d="M12 7.11111C12.1125 6.77778 12.45 6.44444 12.675 6.11111C13.0125 5.77778 13.35 5.44444 13.6875 5.11111C14.1375 4.77778 14.5875 4.55556 15.0375 4.33333C15.6 4.11111 16.05 4 16.6125 4C17.175 4 17.625 4.11111 18.1875 4.33333C18.75 4.55556 19.2 4.88889 19.5375 5.33333C19.9875 5.77778 20.325 6.22222 20.55 6.88889C20.8875 7.55556 21 8.11111 21 8.77778C21 9.88889 20.775 10.8889 20.4375 11.8889C20.1 12.8889 19.65 13.7778 19.0875 14.6667C18.525 15.5556 17.85 16.2222 17.175 16.8889C16.5 17.5556 15.825 18.1111 15.15 18.5556C14.475 19 13.9125 19.3333 13.35 19.6667C12.7875 19.8889 12.3375 20 12.1125 20C11.775 20 11.4375 19.8889 10.875 19.6667C10.3125 19.4444 9.75 19 9.075 18.5556C8.4 18.1111 7.725 17.5556 7.05 16.8889C6.375 16.2222 5.7 15.4444 5.1375 14.6667C4.35 13.7778 3.9 12.8889 3.5625 11.8889C3.225 10.8889 3 9.88889 3 8.77778C3 8.11111 3.1125 7.55556 3.3375 6.88889C3.5625 6.33333 3.9 5.77778 4.35 5.33333C4.8 5 5.25 4.66667 5.8125 4.33333C6.2625 4.11111 6.825 4 7.3875 4C7.95 4 8.5125 4.11111 8.9625 4.33333C9.4125 4.55556 9.8625 4.77778 10.3125 5.11111C10.7625 5.44444 11.1 5.77778 11.325 6.11111C11.55 6.44444 11.8875 6.77778 12 7.11111Z" fill="#303642"/>
</svg>
