<svg width="26" height="26" viewBox="0 0 26 26" fill="none" xmlns="http://www.w3.org/2000/svg">
<rect x="1" y="1" width="24" height="24" stroke="#888888" stroke-width="0.25"/>
<path d="M5 8C5.55228 8 6 7.55228 6 7C6 6.44772 5.55228 6 5 6C4.44772 6 4 6.44772 4 7C4 7.55228 4.44772 8 5 8Z" fill="#303642"/>
<path d="M21 8H9C8.4 8 8 7.6 8 7C8 6.4 8.4 6 9 6H21C21.6 6 22 6.4 22 7C22 7.6 21.5 8 21 8Z" fill="#303642"/>
<path d="M5 14C5.55228 14 6 13.5523 6 13C6 12.4477 5.55228 12 5 12C4.44772 12 4 12.4477 4 13C4 13.5523 4.44772 14 5 14Z" fill="#303642"/>
<path d="M21 14H9C8.4 14 8 13.6 8 13C8 12.4 8.4 12 9 12H21C21.6 12 22 12.4 22 13C22 13.6 21.5 14 21 14Z" fill="#303642"/>
<path d="M5 20C5.55228 20 6 19.5523 6 19C6 18.4477 5.55228 18 5 18C4.44772 18 4 18.4477 4 19C4 19.5523 4.44772 20 5 20Z" fill="#303642"/>
<path d="M21 20H9C8.4 20 8 19.6 8 19C8 18.4 8.4 18 9 18H21C21.6 18 22 18.4 22 19C22 19.6 21.5 20 21 20Z" fill="#303642"/>
</svg>
