<svg width="24" height="24" viewBox="0 0 24 24" fill="none" xmlns="http://www.w3.org/2000/svg">
<path d="M16.7004 9.6C18.5229 9.6 20.0004 8.12254 20.0004 6.3C20.0004 4.47746 18.5229 3 16.7004 3C14.8779 3 13.4004 4.47746 13.4004 6.3C13.4004 8.12254 14.8779 9.6 16.7004 9.6Z" fill="#303642"/>
<path d="M16.7004 21C18.5229 21 20.0004 19.5226 20.0004 17.7C20.0004 15.8775 18.5229 14.4 16.7004 14.4C14.8779 14.4 13.4004 15.8775 13.4004 17.7C13.4004 19.5226 14.8779 21 16.7004 21Z" fill="#303642"/>
<path d="M7.3 15.7C9.12254 15.7 10.6 14.2225 10.6 12.4C10.6 10.5774 9.12254 9.09998 7.3 9.09998C5.47746 9.09998 4 10.5774 4 12.4C4 14.2225 5.47746 15.7 7.3 15.7Z" fill="#303642"/>
<path d="M16.6998 6.29999L7.2998 12.4L16.6998 17.7" stroke="#303642" stroke-width="2" stroke-miterlimit="10"/>
</svg>
