<svg width="24" height="24" viewBox="0 0 24 24" fill="none" xmlns="http://www.w3.org/2000/svg">
<path d="M11.5187 7.24695C11.5779 7.45708 11.7709 7.61111 12 7.61111C12.2291 7.61111 12.4221 7.45708 12.4813 7.24695C12.4857 7.23958 12.491 7.23076 12.4975 7.2204C12.5338 7.16245 12.5888 7.08348 12.6583 6.98745C12.699 6.93107 12.7454 6.86808 12.7935 6.80277C12.8853 6.67805 12.9834 6.54485 13.0606 6.43301L13.5326 5.96685L14.013 5.4924C14.4072 5.20474 14.8043 5.00618 15.2401 4.79091C15.7535 4.58956 16.1363 4.5 16.6125 4.5C17.0945 4.5 17.4809 4.59177 18.0038 4.79836C18.4886 4.98991 18.8617 5.27014 19.1393 5.63572C19.1536 5.65459 19.1693 5.67242 19.1861 5.68908C19.5991 6.09688 19.8833 6.4772 20.0763 7.04878C20.0839 7.07139 20.0931 7.09343 20.1039 7.11472C20.4035 7.70649 20.5 8.1839 20.5 8.77778C20.5 9.81806 20.2901 10.7622 19.9638 11.729C19.6413 12.6843 19.2105 13.5372 18.665 14.3993C18.1373 15.2332 17.5025 15.8627 16.8236 16.5331C16.1681 17.1806 15.5184 17.7144 14.875 18.138C14.2246 18.5662 13.6805 18.8896 13.1298 19.216C12.5941 19.4246 12.2334 19.5 12.1125 19.5C11.8833 19.5 11.63 19.4273 11.0587 19.2016C10.8262 19.1098 10.5794 18.966 10.2922 18.7768C10.1538 18.6857 10.0115 18.5878 9.85916 18.483L9.84533 18.4735C9.68919 18.3661 9.52354 18.2522 9.34997 18.138C8.70664 17.7144 8.0569 17.1806 7.40135 16.5331C6.74461 15.8845 6.08789 15.1276 5.54265 14.3737C5.53299 14.3603 5.52268 14.3474 5.51175 14.3351C4.77739 13.5062 4.35711 12.6797 4.03625 11.729C3.70994 10.7622 3.5 9.81806 3.5 8.77778C3.5 8.1823 3.59772 7.6846 3.80645 7.06302C4.00672 6.57296 4.29965 6.09386 4.67712 5.71326C5.11272 5.39064 5.53224 5.08193 6.05029 4.77364C6.41521 4.59746 6.89171 4.5 7.3875 4.5C7.89075 4.5 8.37412 4.60042 8.74111 4.78165C9.19461 5.0056 9.60587 5.20991 10.0149 5.51289C10.4358 5.82471 10.7271 6.11899 10.9106 6.39085C10.9912 6.51033 11.1028 6.66195 11.2065 6.80277C11.2546 6.86808 11.301 6.93107 11.3417 6.98745C11.4112 7.08348 11.4662 7.16245 11.5025 7.2204C11.509 7.23076 11.5143 7.23958 11.5187 7.24695Z" fill="white" stroke="#ACB2C0" stroke-linecap="round" stroke-linejoin="round"/>
</svg>
